0
SECTION
2
HEADER
9
$INSUNITS
70
4
9
$ACADVER
1
AC1014
9
$HANDSEED
5
FFFF
0
ENDSEC
0
SECTION
2
TABLES
0
TABLE
2
VPORT
5
8
100
AcDbSymbolTable
0
ENDTAB
0
TABLE
2
LTYPE
5
5
100
AcDbSymbolTable
0
LTYPE
5
14
100
AcDbSymbolTableRecord
100
AcDbLinetypeTableRecord
2
BYBLOCK
70
0
0
LTYPE
5
15
100
AcDbSymbolTableRecord
100
AcDbLinetypeTableRecord
2
BYLAYER
70
0
0
ENDTAB
0
TABLE
2
LAYER
5
2
100
AcDbSymbolTable
70
2
0
LAYER
5
50
100
AcDbSymbolTableRecord
100
AcDbLayerTableRecord
2
0
70
0
6
CONTINUOUS
0
ENDTAB
0
TABLE
2
STYLE
5
3
100
AcDbSymbolTable
70
1
0
STYLE
5
11
100
AcDbSymbolTableRecord
100
AcDbTextStyleTableRecord
2
STANDARD
70
0
0
ENDTAB
0
TABLE
2
VIEW
5
6
100
AcDbSymbolTable
70
0
0
ENDTAB
0
TABLE
2
UCS
5
7
100
AcDbSymbolTable
70
0
0
ENDTAB
0
TABLE
2
APPID
5
9
100
AcDbSymbolTable
70
2
0
APPID
5
12
100
AcDbSymbolTableRecord
100
AcDbRegAppTableRecord
2
ACAD
70
0
0
ENDTAB
0
TABLE
2
DIMSTYLE
5
A
100
AcDbSymbolTable
70
1
0
ENDTAB
0
TABLE
2
BLOCK_RECORD
5
1
100
AcDbSymbolTable
70
1
0
BLOCK_RECORD
5
1F
100
AcDbSymbolTableRecord
100
AcDbBlockTableRecord
2
*MODEL_SPACE
0
BLOCK_RECORD
5
1B
100
AcDbSymbolTableRecord
100
AcDbBlockTableRecord
2
*PAPER_SPACE
0
ENDTAB
0
ENDSEC
0
SECTION
2
BLOCKS
0
BLOCK
5
20
100
AcDbEntity
100
AcDbBlockBegin
2
*MODEL_SPACE
0
ENDBLK
5
21
100
AcDbEntity
100
AcDbBlockEnd
0
BLOCK
5
1C
100
AcDbEntity
100
AcDbBlockBegin
2
*PAPER_SPACE
0
ENDBLK
5
1D
100
AcDbEntity
100
AcDbBlockEnd
0
ENDSEC
0
SECTION
2
ENTITIES
0
LWPOLYLINE
5
100
100
AcDbEntity
8
OUTER_PROFILES
100
AcDbPolyline
90
8
70
1
43
0.0
10
109.88996053401647
20
45.000000000000014
10
1.837589179357618e-14
20
45.000000000000014
42
0.41421356237309509
10
-9.9999999999999911
20
35.000000000000028
10
-10
20
9.9999999999999645
42
0.41421356237309453
10
2.7755575615628914e-15
20
-1.7763568394002505e-14
10
109.88996053401647
20
1.7763568394002505e-14
42
0.41421356237309509
10
119.88996053401647
20
10.000000000000018
10
119.88996053401647
20
35.000000000000014
42
0.41421356237309509
0
CIRCLE
5
101
100
AcDbEntity
8
INTERIOR_PROFILES
100
AcDbCircle
10
-84.539839199550613
20
22.579794189490556
30
0
40
1.9999999999999929
210
0
220
0
230
-1
0
LWPOLYLINE
5
102
100
AcDbEntity
8
INTERIOR_PROFILES
100
AcDbPolyline
90
4
70
1
43
0.0
10
82.42385176912876
20
9.6007302484350276
10
57.423851381698583
20
9.6007302484350276
42
-0.99999999999999989
10
57.423851381698583
20
14.600730248435028
10
82.42385176912876
20
14.600730248435028
42
-0.99999999999999989
0
CIRCLE
5
103
100
AcDbEntity
8
INTERIOR_PROFILES
100
AcDbCircle
10
-96.528467016940056
20
23.102099709388266
30
0
40
8.2499999999999911
210
0
220
0
230
-1
0
CIRCLE
5
104
100
AcDbEntity
8
INTERIOR_PROFILES
100
AcDbCircle
10
-56.070633752913466
20
23.200157552561784
30
0
40
1.5000000000000213
210
0
220
0
230
-1
0
CIRCLE
5
105
100
AcDbEntity
8
INTERIOR_PROFILES
100
AcDbCircle
10
-108.52204940390737
20
22.70969490943348
30
0
40
1.9999999999999942
210
0
220
0
230
-1
0
LWPOLYLINE
5
106
100
AcDbEntity
8
INTERIOR_PROFILES
100
AcDbPolyline
90
4
70
1
43
0.0
10
57.42385139659973
20
36.600730576260574
10
82.42385176912876
20
36.600730576260574
42
-0.99999999999999989
10
82.42385176912876
20
31.600730576260574
10
57.42385139659973
20
31.600730576260574
42
-0.99999999999999989
0
CIRCLE
5
107
100
AcDbEntity
8
INTERIOR_PROFILES
100
AcDbCircle
10
-15.01657834736676
20
21.704519072387669
30
0
40
11.000000000000014
210
0
220
0
230
-1
0
CIRCLE
5
108
100
AcDbEntity
8
INTERIOR_PROFILES
100
AcDbCircle
10
0.48342165263321135
20
37.204519072387676
30
0
40
1.5000000000000036
210
0
220
0
230
-1
0
CIRCLE
5
109
100
AcDbEntity
8
INTERIOR_PROFILES
100
AcDbCircle
10
0.48342165263322912
20
6.2045190723876686
30
0
40
1.5000000000000036
210
0
220
0
230
-1
0
CIRCLE
5
110
100
AcDbEntity
8
INTERIOR_PROFILES
100
AcDbCircle
10
-30.51657834736675
20
6.2045190723876509
30
0
40
1.4999999999999947
210
0
220
0
230
-1
0
CIRCLE
5
111
100
AcDbEntity
8
INTERIOR_PROFILES
100
AcDbCircle
10
-96.268313938068317
20
35.099279393612115
30
0
40
1.9999999999999996
210
0
220
0
230
-1
0
CIRCLE
5
112
100
AcDbEntity
8
INTERIOR_PROFILES
100
AcDbCircle
10
-30.51657834736675
20
37.204519072387676
30
0
40
1.4999999999999947
210
0
220
0
230
-1
0
CIRCLE
5
113
100
AcDbEntity
8
INTERIOR_PROFILES
100
AcDbCircle
10
-96.528467016940056
20
11.101073508778754
30
0
40
1.9999999999999916
210
0
220
0
230
-1
0
LWPOLYLINE
5
114
100
AcDbEntity
8
INTERIOR_PROFILES
100
AcDbPolyline
90
4
70
1
43
0.0
10
75.423851709524072
20
27.292009896547338
42
-0.99999999999999989
10
75.423851709524072
20
19.292009896547331
10
70.433693737911938
20
19.292009896547331
42
-0.99999999999999989
10
70.433693737911938
20
27.292009896547338
0
CIRCLE
5
115
100
AcDbEntity
8
INTERIOR_PROFILES
100
AcDbCircle
10
-61.608025774459492
20
23.200157552561784
30
0
40
1.5000000000000213
210
0
220
0
230
-1
0
LINE
5
116
100
AcDbEntity
8
BEND
100
AcDbLine
10
45.654866776461631
20
0
30
-1.8780748545114839e-13
11
45.654866776461631
21
45.000000000000007
31
-1.9129535394915694e-13
0
LINE
5
117
100
AcDbEntity
8
BEND_EXTENT
100
AcDbLine
10
40.000000000000043
20
0
30
-1.4210854715202004e-13
11
40.000000000000057
21
45.000000000000007
31
-1.4210854715202004e-13
0
LINE
5
118
100
AcDbEntity
8
BEND_EXTENT
100
AcDbLine
10
51.309733552923298
20
45.000000000000014
30
-2.1760371282653068e-13
11
51.309733552923298
21
1.7763568394002505e-14
31
-2.1316282072803006e-13
0
ENDSEC
0
SECTION
2
OBJECTS
0
DICTIONARY
5
C
100
AcDbDictionary
3
ACAD_GROUP
350
D
3
ACAD_MLINESTYLE
350
17
0
DICTIONARY
5
D
100
AcDbDictionary
0
DICTIONARY
5
1A
330
C
100
AcDbDictionary
0
DICTIONARY
5
17
100
AcDbDictionary
0
ENDSEC
0
EOF
