0
SECTION
2
HEADER
9
$INSUNITS
70
4
9
$ACADVER
1
AC1014
9
$HANDSEED
5
FFFF
0
ENDSEC
0
SECTION
2
TABLES
0
TABLE
2
VPORT
5
8
100
AcDbSymbolTable
0
ENDTAB
0
TABLE
2
LTYPE
5
5
100
AcDbSymbolTable
0
LTYPE
5
14
100
AcDbSymbolTableRecord
100
AcDbLinetypeTableRecord
2
BYBLOCK
70
0
0
LTYPE
5
15
100
AcDbSymbolTableRecord
100
AcDbLinetypeTableRecord
2
BYLAYER
70
0
0
ENDTAB
0
TABLE
2
LAYER
5
2
100
AcDbSymbolTable
70
2
0
LAYER
5
50
100
AcDbSymbolTableRecord
100
AcDbLayerTableRecord
2
0
70
0
6
CONTINUOUS
0
ENDTAB
0
TABLE
2
STYLE
5
3
100
AcDbSymbolTable
70
1
0
STYLE
5
11
100
AcDbSymbolTableRecord
100
AcDbTextStyleTableRecord
2
STANDARD
70
0
0
ENDTAB
0
TABLE
2
VIEW
5
6
100
AcDbSymbolTable
70
0
0
ENDTAB
0
TABLE
2
UCS
5
7
100
AcDbSymbolTable
70
0
0
ENDTAB
0
TABLE
2
APPID
5
9
100
AcDbSymbolTable
70
2
0
APPID
5
12
100
AcDbSymbolTableRecord
100
AcDbRegAppTableRecord
2
ACAD
70
0
0
ENDTAB
0
TABLE
2
DIMSTYLE
5
A
100
AcDbSymbolTable
70
1
0
ENDTAB
0
TABLE
2
BLOCK_RECORD
5
1
100
AcDbSymbolTable
70
1
0
BLOCK_RECORD
5
1F
100
AcDbSymbolTableRecord
100
AcDbBlockTableRecord
2
*MODEL_SPACE
0
BLOCK_RECORD
5
1B
100
AcDbSymbolTableRecord
100
AcDbBlockTableRecord
2
*PAPER_SPACE
0
ENDTAB
0
ENDSEC
0
SECTION
2
BLOCKS
0
BLOCK
5
20
100
AcDbEntity
100
AcDbBlockBegin
2
*MODEL_SPACE
0
ENDBLK
5
21
100
AcDbEntity
100
AcDbBlockEnd
0
BLOCK
5
1C
100
AcDbEntity
100
AcDbBlockBegin
2
*PAPER_SPACE
0
ENDBLK
5
1D
100
AcDbEntity
100
AcDbBlockEnd
0
ENDSEC
0
SECTION
2
ENTITIES
0
CIRCLE
5
100
100
AcDbEntity
8
0
100
AcDbCircle
10
115.17945623133463
20
82.148606630116902
30
0
40
1.5000000000000036
210
3.3291167982264939e-60
220
-5.1858158521627116e-105
230
1
0
CIRCLE
5
101
100
AcDbEntity
8
0
100
AcDbCircle
10
124.22175206104552
20
82.174969017804941
30
0
40
1.5000000000000036
210
3.3291167982264939e-60
220
-5.1858158521627116e-105
230
1
0
CIRCLE
5
102
100
AcDbEntity
8
0
100
AcDbCircle
10
115.00000171363354
20
57.500000596642664
30
0
40
1.5000000000000036
210
2.5748624099637676e-60
220
-3.1021806232445673e-105
230
1
0
CIRCLE
5
103
100
AcDbEntity
8
0
100
AcDbCircle
10
124.40507607485875
20
57.535521237642591
30
0
40
1.5000000000000036
210
2.5748624099637676e-60
220
-3.1021806232445673e-105
230
1
0
LWPOLYLINE
5
104
100
AcDbEntity
8
0
100
AcDbPolyline
90
4
70
1
43
0.0
10
20.000000298023224
20
82.500000939369357
10
43.000000670552254
20
82.500000939369357
42
-0.99999999999999989
10
43.000000670552254
20
77.500000939369357
10
20.000000298023224
20
77.500000939369357
42
-0.99999999999999989
0
LWPOLYLINE
5
105
100
AcDbEntity
8
0
100
AcDbPolyline
90
4
70
1
43
0.0
10
20.000000298023224
20
62.500000641346141
10
43.000000670552254
20
62.500000641346141
42
-0.99999999999999989
10
43.000000670552254
20
57.500000641346141
10
20.000000298023224
20
57.500000641346141
42
-0.99999999999999989
0
LWPOLYLINE
5
106
100
AcDbEntity
8
0
100
AcDbPolyline
90
4
70
1
43
0.0
10
150
20
65.999999747276462
10
110
20
65.999999747276462
42
-0.99999999999999989
10
110
20
73.999999747276476
10
150
20
73.999999747276476
42
-0.99999999999999989
0
LWPOLYLINE
5
107
100
AcDbEntity
8
0
100
AcDbPolyline
90
4
70
1
43
0.0
10
145
20
77.499999747276462
10
130.99999999999997
20
77.499999747276462
42
-0.99999999999999989
10
130.99999999999997
20
82.499999747276462
10
145
20
82.499999747276462
42
-0.99999999999999989
0
LWPOLYLINE
5
108
100
AcDbEntity
8
0
100
AcDbPolyline
90
4
70
1
43
0.0
10
145.00000216066837
20
57.500000641346141
10
131.00000175833699
20
57.500000641346141
42
-0.99999999999999989
10
131.00000175833699
20
62.500000641346141
10
145.00000216066837
20
62.500000641346141
42
-0.99999999999999989
0
LWPOLYLINE
5
109
100
AcDbEntity
8
0
100
AcDbPolyline
90
4
70
1
43
0.0
10
95
20
65.999999747276462
10
30
20
65.999999747276462
42
-0.99999999999999989
10
30
20
73.999999747276476
10
95
20
73.999999747276476
42
-0.99999999999999989
0
LWPOLYLINE
5
110
100
AcDbEntity
8
0
100
AcDbPolyline
90
4
70
1
43
0.0
10
108
20
77.499999747276462
10
80
20
77.499999747276462
42
-0.99999999999999989
10
80
20
82.499999747276462
10
108
20
82.499999747276462
42
-0.99999999999999989
0
LWPOLYLINE
5
111
100
AcDbEntity
8
0
100
AcDbPolyline
90
4
70
1
43
0.0
10
108.00000163912773
20
57.500000641346141
10
80.000001266598701
20
57.500000641346141
42
-0.99999999999999989
10
80.000001266598701
20
62.500000641346141
10
108.00000163912773
20
62.500000641346141
42
-0.99999999999999989
0
CIRCLE
5
112
100
AcDbEntity
8
0
100
AcDbCircle
10
67.000000894069672
20
56.000000566840342
30
0
40
1.5000000000000036
210
3.6265065288318302e-64
220
-6.1536945383930016e-113
230
1
0
CIRCLE
5
113
100
AcDbEntity
8
0
100
AcDbCircle
10
67.000000894069672
20
84.000001013875178
30
0
40
1.4999999999999947
210
3.6265065288318302e-64
220
-6.1536945383930028e-113
230
1
0
CIRCLE
5
114
100
AcDbEntity
8
0
100
AcDbCircle
10
55.00000074505806
20
56.000000566840342
30
0
40
1.5000000000000036
210
3.6265065288318302e-64
220
-6.1536945383930016e-113
230
1
0
CIRCLE
5
115
100
AcDbEntity
8
0
100
AcDbCircle
10
55
20
83.999999747276476
30
0
40
1.5000000000000036
210
3.6265065288318302e-64
220
-6.1536945383930016e-113
230
1
0
CIRCLE
5
116
100
AcDbEntity
8
0
100
AcDbCircle
10
190.5
20
54.499999747276462
30
0
40
1.5000000000000213
210
3.6265065288318302e-64
220
-6.1536945383930016e-113
230
1
0
CIRCLE
5
117
100
AcDbEntity
8
0
100
AcDbCircle
10
175
20
69.999999747276462
30
0
40
11.000000000000014
210
3.6265065288318302e-64
220
-6.1536945383930028e-113
230
1
0
CIRCLE
5
118
100
AcDbEntity
8
0
100
AcDbCircle
10
165.10050506338837
20
79.899494683888136
30
0
40
1.5000000000000213
210
3.6265065288318302e-64
220
-6.1536945383930016e-113
230
1
0
CIRCLE
5
119
100
AcDbEntity
8
0
100
AcDbCircle
10
184.89949493661163
20
60.100504810664802
30
0
40
1.4999999999999858
210
3.6265065288318302e-64
220
-6.1536945383930016e-113
230
1
0
CIRCLE
5
120
100
AcDbEntity
8
0
100
AcDbCircle
10
165.10050506338837
20
60.100504810664802
30
0
40
1.4999999999999858
210
3.6265065288318302e-64
220
-6.1536945383930016e-113
230
1
0
CIRCLE
5
121
100
AcDbEntity
8
0
100
AcDbCircle
10
190.5
20
85.499999747276476
30
0
40
1.4999999999999858
210
3.6265065288318302e-64
220
-6.1536945383930016e-113
230
1
0
CIRCLE
5
122
100
AcDbEntity
8
0
100
AcDbCircle
10
159.5
20
85.499999747276476
30
0
40
1.4999999999999858
210
3.6265065288318302e-64
220
-6.1536945383930016e-113
230
1
0
CIRCLE
5
123
100
AcDbEntity
8
0
100
AcDbCircle
10
184.89949493661163
20
79.899494683888136
30
0
40
1.4999999999999858
210
3.6265065288318302e-64
220
-6.1536945383930016e-113
230
1
0
CIRCLE
5
124
100
AcDbEntity
8
0
100
AcDbCircle
10
159.5
20
54.499999747276462
30
0
40
1.5000000000000213
210
3.6265065288318302e-64
220
-6.1536945383930016e-113
230
1
0
LWPOLYLINE
5
125
100
AcDbEntity
8
0
100
AcDbPolyline
90
16
70
1
43
0.0
10
-22.000000327825546
20
59.609999747276639
42
0.41421356237309448
10
-12.000000327825546
20
49.609999747276639
10
24.999999999999996
20
49.609999747276639
10
25
20
49.749431783221361
10
119.35491524872404
20
49.749431783221382
42
-0.081695489215337175
10
149.78446839005866
20
44.744111046046072
10
150.18109760183876
20
44.610000343323087
10
190.00000298023224
20
44.610000343323087
42
0.4142135623730932
10
200.00000298023224
20
54.610000343323087
10
200.00000298023224
20
84.749431783221368
42
0.41421356237309509
10
190.00000298023224
20
94.749431783221368
10
150.18109760183876
20
94.749431783221368
10
149.80635765744236
20
94.624518468422536
42
-0.080611571670535467
10
119.76471988584277
20
89.74943178322134
10
-12.000000327825546
20
89.749431783221368
42
0.41421356237309492
10
-22.000000327825543
20
79.749431783221368
0
CIRCLE
5
126
100
AcDbEntity
8
0
100
AcDbCircle
10
-3.3306691235063212e-16
20
81.609999926090637
30
0
40
2.0000000000000004
210
1.0691058840369151e-50
220
-1.84011741743976e-99
230
1
0
CIRCLE
5
127
100
AcDbEntity
8
0
100
AcDbCircle
10
-11.991134095575774
20
69.148802282062263
30
0
40
1.9999999999999996
210
3.6784579789714878e-64
220
-6.3312668066767235e-113
230
1
0
CIRCLE
5
128
100
AcDbEntity
8
0
100
AcDbCircle
10
-1.9664515266519689e-30
20
69.609999747276717
30
0
40
4
210
1.0691058840369151e-50
220
3.944304526105059e-31
230
1
0
CIRCLE
5
129
100
AcDbEntity
8
0
100
AcDbCircle
10
3.3306691235062916e-16
20
57.609999568462769
30
0
40
1.9999999999999993
210
3.6784579789714878e-64
220
-6.3312668066767235e-113
230
1
0
CIRCLE
5
130
100
AcDbEntity
8
0
100
AcDbCircle
10
12.000000178813934
20
69.609999747276703
30
0
40
1.9999999999999996
210
3.6784579789714878e-64
220
-6.3312668066767235e-113
230
1
0
LINE
5
131
100
AcDbEntity
8
0
100
AcDbLine
10
119.76471988584277
20
89.74943178322134
30
0
11
-12.000000327825546
21
89.749431783221368
31
0
0
ENDSEC
0
SECTION
2
OBJECTS
0
DICTIONARY
5
C
100
AcDbDictionary
3
ACAD_GROUP
350
D
3
ACAD_MLINESTYLE
350
17
0
DICTIONARY
5
D
100
AcDbDictionary
0
DICTIONARY
5
1A
330
C
100
AcDbDictionary
0
DICTIONARY
5
17
100
AcDbDictionary
0
ENDSEC
0
EOF
