0
SECTION
2
HEADER
9
$INSUNITS
70
4
9
$ACADVER
1
AC1014
9
$HANDSEED
5
FFFF
0
ENDSEC
0
SECTION
2
TABLES
0
TABLE
2
VPORT
5
8
100
AcDbSymbolTable
0
ENDTAB
0
TABLE
2
LTYPE
5
5
100
AcDbSymbolTable
0
LTYPE
5
14
100
AcDbSymbolTableRecord
100
AcDbLinetypeTableRecord
2
BYBLOCK
70
0
0
LTYPE
5
15
100
AcDbSymbolTableRecord
100
AcDbLinetypeTableRecord
2
BYLAYER
70
0
0
ENDTAB
0
TABLE
2
LAYER
5
2
100
AcDbSymbolTable
70
2
0
LAYER
5
50
100
AcDbSymbolTableRecord
100
AcDbLayerTableRecord
2
0
70
0
6
CONTINUOUS
0
ENDTAB
0
TABLE
2
STYLE
5
3
100
AcDbSymbolTable
70
1
0
STYLE
5
11
100
AcDbSymbolTableRecord
100
AcDbTextStyleTableRecord
2
STANDARD
70
0
0
ENDTAB
0
TABLE
2
VIEW
5
6
100
AcDbSymbolTable
70
0
0
ENDTAB
0
TABLE
2
UCS
5
7
100
AcDbSymbolTable
70
0
0
ENDTAB
0
TABLE
2
APPID
5
9
100
AcDbSymbolTable
70
2
0
APPID
5
12
100
AcDbSymbolTableRecord
100
AcDbRegAppTableRecord
2
ACAD
70
0
0
ENDTAB
0
TABLE
2
DIMSTYLE
5
A
100
AcDbSymbolTable
70
1
0
ENDTAB
0
TABLE
2
BLOCK_RECORD
5
1
100
AcDbSymbolTable
70
1
0
BLOCK_RECORD
5
1F
100
AcDbSymbolTableRecord
100
AcDbBlockTableRecord
2
*MODEL_SPACE
0
BLOCK_RECORD
5
1B
100
AcDbSymbolTableRecord
100
AcDbBlockTableRecord
2
*PAPER_SPACE
0
ENDTAB
0
ENDSEC
0
SECTION
2
BLOCKS
0
BLOCK
5
20
100
AcDbEntity
100
AcDbBlockBegin
2
*MODEL_SPACE
0
ENDBLK
5
21
100
AcDbEntity
100
AcDbBlockEnd
0
BLOCK
5
1C
100
AcDbEntity
100
AcDbBlockBegin
2
*PAPER_SPACE
0
ENDBLK
5
1D
100
AcDbEntity
100
AcDbBlockEnd
0
ENDSEC
0
SECTION
2
ENTITIES
0
CIRCLE
5
100
100
AcDbEntity
8
0
100
AcDbCircle
10
36.306086544034201
20
40.731655210209595
30
0
40
2.0000000000000018
210
-1.210184973390412e-122
220
7.2418221729146683e-199
230
1
0
CIRCLE
5
101
100
AcDbEntity
8
0
100
AcDbCircle
10
1.0658141036401503e-13
20
-92.000001594424248
30
0
40
1.9999999999999993
210
-1.210184973390412e-122
220
7.2418221729146683e-199
230
1
0
CIRCLE
5
102
100
AcDbEntity
8
0
100
AcDbCircle
10
-25.000000372528923
20
-60.00000111758709
30
0
40
1.9999999999999973
210
-1.0481821491086379e-122
220
-1.7516230804060213e-46
230
1
0
CIRCLE
5
103
100
AcDbEntity
8
0
100
AcDbCircle
10
0.04196589804365055
20
59.499980211943928
30
0
40
2.0000000000000022
210
-1.210184973390412e-122
220
7.2418221729146683e-199
230
1
0
CIRCLE
5
104
100
AcDbEntity
8
0
100
AcDbCircle
10
36.306086544034201
20
-10.731655210209601
30
0
40
1.9999999999999973
210
-1.0481821491086379e-122
220
-1.7516230804060213e-46
230
1
0
CIRCLE
5
105
100
AcDbEntity
8
0
100
AcDbCircle
10
25.000000372529136
20
-60.00000111758709
30
0
40
1.9999999999999973
210
-1.0481821491086379e-122
220
-1.7516230804060213e-46
230
1
0
CIRCLE
5
106
100
AcDbEntity
8
0
100
AcDbCircle
10
-36.306086544033988
20
-10.731655210209601
30
0
40
2.0000000000000018
210
-1.210184973390412e-122
220
7.2418221729146683e-199
230
1
0
CIRCLE
5
107
100
AcDbEntity
8
0
100
AcDbCircle
10
-36.306086544033988
20
40.731655210209595
30
0
40
2.0000000000000018
210
-1.210184973390412e-122
220
7.2418221729146683e-199
230
1
0
CIRCLE
5
108
100
AcDbEntity
8
0
100
AcDbCircle
10
44.500000000000107
20
14.999999999999982
30
-1.9721522630525295e-30
40
1.4999999999999947
210
0
220
-0
230
1
0
CIRCLE
5
109
100
AcDbEntity
8
0
100
AcDbCircle
10
22.250000000000124
20
53.538130468407502
30
0
40
1.4999999999999991
210
1.210184973390412e-122
220
-7.2418221729146674e-199
230
1
0
CIRCLE
5
110
100
AcDbEntity
8
0
100
AcDbCircle
10
22.250000000000103
20
-23.53813046840753
30
0
40
1.4999999999999991
210
1.210184973390412e-122
220
-7.2418221729146674e-199
230
1
0
CIRCLE
5
111
100
AcDbEntity
8
0
100
AcDbCircle
10
-44.499999999999893
20
14.999999999999996
30
-1.9721522630525295e-30
40
1.5000000000000036
210
0
220
-0
230
1
0
CIRCLE
5
112
100
AcDbEntity
8
0
100
AcDbCircle
10
-22.249999999999872
20
53.538130468407523
30
0
40
1.4999999999999991
210
1.210184973390412e-122
220
-7.2418221729146674e-199
230
1
0
CIRCLE
5
113
100
AcDbEntity
8
0
100
AcDbCircle
10
-22.249999999999901
20
-23.538130468407523
30
0
40
1.4999999999999991
210
1.210184973390412e-122
220
-7.2418221729146674e-199
230
1
0
LWPOLYLINE
5
114
100
AcDbEntity
8
0
100
AcDbPolyline
90
4
70
1
43
0.0
10
-16.999999999999893
20
-85.5
42
0.99999999999999989
10
-13.999999999999893
20
-85.5
10
-13.999999999999893
20
-70.5
42
0.99999999999999989
10
-16.999999999999893
20
-70.5
0
CIRCLE
5
115
100
AcDbEntity
8
0
100
AcDbCircle
10
1.0658141036401503e-13
20
14.999999999999996
30
-1.9721522630525295e-30
40
37.5
210
0
220
-0
230
1
0
LWPOLYLINE
5
116
100
AcDbEntity
8
0
100
AcDbPolyline
90
4
70
1
43
0.0
10
14.000000000000107
20
-85.5
42
0.99999999999999989
10
17.000000000000107
20
-85.5
10
17.000000000000107
20
-70.5
42
0.99999999999999989
10
14.000000000000107
20
-70.5
0
LWPOLYLINE
5
117
100
AcDbEntity
8
0
100
AcDbPolyline
90
4
70
1
43
0.0
10
14.000000000000107
20
-54.500000000000014
42
0.99999999999999989
10
17.000000000000107
20
-54.500000000000014
10
17.000000000000107
20
-39.500000000000007
42
0.99999999999999989
10
14.000000000000107
20
-39.500000000000014
0
LWPOLYLINE
5
118
100
AcDbEntity
8
0
100
AcDbPolyline
90
4
70
1
43
0.0
10
-16.999999999999893
20
-54.500000000000014
42
0.99999999999999989
10
-13.999999999999893
20
-54.500000000000014
10
-13.999999999999893
20
-39.500000000000007
42
0.99999999999999989
10
-16.999999999999893
20
-39.500000000000014
0
LWPOLYLINE
5
119
100
AcDbEntity
8
0
100
AcDbPolyline
90
4
70
1
43
0.0
10
-7.4999999999998934
20
-70
42
0.99999999999999989
10
7.5000000000001066
20
-70
10
7.5000000000001066
20
-55
42
0.99999999999999989
10
-7.4999999999998934
20
-55
0
LWPOLYLINE
5
120
100
AcDbEntity
8
0
100
AcDbPolyline
90
4
70
1
43
0.0
10
-50.614448631960556
20
5.4906577681410651
10
-32.183877637423841
20
-69.52194991132032
42
0.82417652720577905
10
31.531327155103106
20
-72.87562230016195
10
50.026395181301581
20
2.7684921140417984
42
1.2390912879794562
0
ENDSEC
0
SECTION
2
OBJECTS
0
DICTIONARY
5
C
100
AcDbDictionary
3
ACAD_GROUP
350
D
3
ACAD_MLINESTYLE
350
17
0
DICTIONARY
5
D
100
AcDbDictionary
0
DICTIONARY
5
1A
330
C
100
AcDbDictionary
0
DICTIONARY
5
17
100
AcDbDictionary
0
ENDSEC
0
EOF
