0
SECTION
2
HEADER
9
$INSUNITS
70
4
9
$ACADVER
1
AC1014
9
$HANDSEED
5
FFFF
0
ENDSEC
0
SECTION
2
TABLES
0
TABLE
2
VPORT
5
8
100
AcDbSymbolTable
0
ENDTAB
0
TABLE
2
LTYPE
5
5
100
AcDbSymbolTable
0
LTYPE
5
14
100
AcDbSymbolTableRecord
100
AcDbLinetypeTableRecord
2
BYBLOCK
70
0
0
LTYPE
5
15
100
AcDbSymbolTableRecord
100
AcDbLinetypeTableRecord
2
BYLAYER
70
0
0
ENDTAB
0
TABLE
2
LAYER
5
2
100
AcDbSymbolTable
70
2
0
LAYER
5
50
100
AcDbSymbolTableRecord
100
AcDbLayerTableRecord
2
0
70
0
6
CONTINUOUS
0
ENDTAB
0
TABLE
2
STYLE
5
3
100
AcDbSymbolTable
70
1
0
STYLE
5
11
100
AcDbSymbolTableRecord
100
AcDbTextStyleTableRecord
2
STANDARD
70
0
0
ENDTAB
0
TABLE
2
VIEW
5
6
100
AcDbSymbolTable
70
0
0
ENDTAB
0
TABLE
2
UCS
5
7
100
AcDbSymbolTable
70
0
0
ENDTAB
0
TABLE
2
APPID
5
9
100
AcDbSymbolTable
70
2
0
APPID
5
12
100
AcDbSymbolTableRecord
100
AcDbRegAppTableRecord
2
ACAD
70
0
0
ENDTAB
0
TABLE
2
DIMSTYLE
5
A
100
AcDbSymbolTable
70
1
0
ENDTAB
0
TABLE
2
BLOCK_RECORD
5
1
100
AcDbSymbolTable
70
1
0
BLOCK_RECORD
5
1F
100
AcDbSymbolTableRecord
100
AcDbBlockTableRecord
2
*MODEL_SPACE
0
BLOCK_RECORD
5
1B
100
AcDbSymbolTableRecord
100
AcDbBlockTableRecord
2
*PAPER_SPACE
0
ENDTAB
0
ENDSEC
0
SECTION
2
BLOCKS
0
BLOCK
5
20
100
AcDbEntity
100
AcDbBlockBegin
2
*MODEL_SPACE
0
ENDBLK
5
21
100
AcDbEntity
100
AcDbBlockEnd
0
BLOCK
5
1C
100
AcDbEntity
100
AcDbBlockBegin
2
*PAPER_SPACE
0
ENDBLK
5
1D
100
AcDbEntity
100
AcDbBlockEnd
0
ENDSEC
0
SECTION
2
ENTITIES
0
LWPOLYLINE
5
100
100
AcDbEntity
8
OUTER_PROFILES
100
AcDbPolyline
90
16
70
1
43
0.0
10
94.76471988584278
20
40.139432035944736
10
131.76472021366831
20
40.139431365392483
42
-0.41421356237309509
10
141.76472021366831
20
30.13943203594474
10
141.76472021366831
20
10.000000000000018
42
-0.41421356237309509
10
131.76472021366831
20
1.8873791418627661e-14
10
0
20
0
42
0.080611571670535509
10
-30.0416377715996
20
-4.8750866852011745
10
-30.416377715995981
20
-5
10
-70.235283094389459
20
-4.9999999999999991
42
-0.41421356237309503
10
-80.235283094389459
20
4.9999999999999973
10
-80.235283094389459
20
35.139431439898289
42
-0.41421356237309509
10
-70.235283094389459
20
45.139431439898289
10
-30.416377715995981
20
45.139431439898289
10
-30.01974850421588
20
45.005320737175282
42
0.081695489215337133
10
0.40980463711868698
20
40
10
94.76471988584278
20
40.000000000000014
0
CIRCLE
5
101
100
AcDbEntity
8
INTERIOR_PROFILES
100
AcDbCircle
10
-119.76471988584278
20
32.139432214758621
30
0
40
1.9999999999999929
210
0
220
0
230
-1
0
CIRCLE
5
102
100
AcDbEntity
8
INTERIOR_PROFILES
100
AcDbCircle
10
-119.76471988584278
20
20.139432035944669
30
0
40
4.0000000000000036
210
0
220
0
230
-1
0
CIRCLE
5
103
100
AcDbEntity
8
INTERIOR_PROFILES
100
AcDbCircle
10
-119.76471988584278
20
8.1394318571307522
30
0
40
1.9999999999999929
210
0
220
0
230
-1
0
LWPOLYLINE
5
104
100
AcDbEntity
8
INTERIOR_PROFILES
100
AcDbPolyline
90
4
70
1
43
0.0
10
99.764719587819556
20
32.249431141875242
42
-0.99999999999999989
10
99.764719587819556
20
27.249431141875242
10
76.764719215290526
20
27.249431141875242
42
-0.99999999999999989
10
76.764719215290526
20
32.249431141875242
0
LWPOLYLINE
5
105
100
AcDbEntity
8
INTERIOR_PROFILES
100
AcDbPolyline
90
4
70
1
43
0.0
10
-11.235280114157202
20
12.249432035944912
10
-25.235280114157224
20
12.249432035944912
42
0.99999999999999989
10
-25.235280114157224
20
7.2494320359449116
10
-11.235280114157202
20
7.2494320359449116
42
0.99999999999999989
0
LWPOLYLINE
5
106
100
AcDbEntity
8
INTERIOR_PROFILES
100
AcDbPolyline
90
4
70
1
43
0.0
10
99.764719587819556
20
12.249430843852016
10
76.764719215290526
20
12.249430843852007
42
0.99999999999999989
10
76.764719215290526
20
7.2494308438520072
10
99.764719587819556
20
7.2494308438519983
42
0.99999999999999989
0
LWPOLYLINE
5
107
100
AcDbEntity
8
INTERIOR_PROFILES
100
AcDbPolyline
90
4
70
1
43
0.0
10
-30.235280114157224
20
15.749432035944908
10
9.7647198858427764
20
15.749432035944908
42
0.99999999999999989
10
9.7647198858427764
20
23.749432035944913
10
-30.235280114157224
20
23.749432035944913
42
0.99999999999999989
0
CIRCLE
5
108
100
AcDbEntity
8
INTERIOR_PROFILES
100
AcDbCircle
10
4.640356189015975
20
32.213910545578784
30
0
40
1.5000000000000036
210
0
220
0
230
-1
0
CIRCLE
5
109
100
AcDbEntity
8
INTERIOR_PROFILES
100
AcDbCircle
10
-4.7647181722092391
20
32.249431186578718
30
0
40
1.5000000000000036
210
0
220
0
230
-1
0
CIRCLE
5
110
100
AcDbEntity
8
INTERIOR_PROFILES
100
AcDbCircle
10
4.4570321752027375
20
7.5744627654164276
30
0
40
1.5000000000000036
210
0
220
0
230
-1
0
CIRCLE
5
111
100
AcDbEntity
8
INTERIOR_PROFILES
100
AcDbCircle
10
-4.5852636545081538
20
7.6008251531044735
30
0
40
1.5000000000000036
210
0
220
0
230
-1
0
CIRCLE
5
112
100
AcDbEntity
8
INTERIOR_PROFILES
100
AcDbCircle
10
-131.75585398141857
20
20.600629501159133
30
0
40
1.9999999999999929
210
0
220
0
230
-1
0
CIRCLE
5
113
100
AcDbEntity
8
INTERIOR_PROFILES
100
AcDbCircle
10
-107.76471970702885
20
20.139432035944687
30
0
40
1.9999999999999929
210
0
220
0
230
-1
0
LWPOLYLINE
5
114
100
AcDbEntity
8
INTERIOR_PROFILES
100
AcDbPolyline
90
4
70
1
43
0.0
10
11.764718246715038
20
27.249431141875242
42
-0.99999999999999989
10
11.764718246715038
20
32.249431141875242
10
39.764718619244078
20
32.249431141875242
42
-0.99999999999999989
10
39.764718619244078
20
27.249431141875242
0
LWPOLYLINE
5
115
100
AcDbEntity
8
INTERIOR_PROFILES
100
AcDbPolyline
90
4
70
1
43
0.0
10
39.76471988584278
20
12.249432035944912
42
-0.99999999999999989
10
39.76471988584278
20
7.2494320359449116
10
11.764719885842769
20
7.2494320359449116
42
-0.99999999999999989
10
11.764719885842769
20
12.249432035944912
0
LWPOLYLINE
5
116
100
AcDbEntity
8
INTERIOR_PROFILES
100
AcDbPolyline
90
4
70
1
43
0.0
10
-11.235281872494216
20
32.249431141875242
10
-25.235282274825597
20
32.249431141875242
42
0.99999999999999989
10
-25.235282274825597
20
27.249431141875242
10
-11.235281872494216
20
27.249431141875242
42
0.99999999999999989
0
CIRCLE
5
117
100
AcDbEntity
8
INTERIOR_PROFILES
100
AcDbCircle
10
-52.764718991773101
20
33.749431216381041
30
0
40
1.5000000000000036
210
0
220
0
230
-1
0
LWPOLYLINE
5
118
100
AcDbEntity
8
INTERIOR_PROFILES
100
AcDbPolyline
90
4
70
1
43
0.0
10
24.764719885842776
20
15.749432035944908
42
-0.99999999999999989
10
24.764719885842776
20
23.749432035944913
10
89.76471988584278
20
23.749432035944913
42
-0.99999999999999989
10
89.76471988584278
20
15.749432035944908
0
CIRCLE
5
119
100
AcDbEntity
8
INTERIOR_PROFILES
100
AcDbCircle
10
-52.764718991773101
20
5.7494307693461977
30
0
40
1.4999999999999947
210
0
220
0
230
-1
0
CIRCLE
5
120
100
AcDbEntity
8
INTERIOR_PROFILES
100
AcDbCircle
10
39.73528011415722
20
4.2494320359448956
30
0
40
1.4999999999999858
210
0
220
0
230
-1
0
CIRCLE
5
121
100
AcDbEntity
8
INTERIOR_PROFILES
100
AcDbCircle
10
39.73528011415722
20
35.24943203594492
30
0
40
1.5000000000000213
210
0
220
0
230
-1
0
CIRCLE
5
122
100
AcDbEntity
8
INTERIOR_PROFILES
100
AcDbCircle
10
65.134775050768866
20
9.849937099333248
30
0
40
1.4999999999999858
210
0
220
0
230
-1
0
CIRCLE
5
123
100
AcDbEntity
8
INTERIOR_PROFILES
100
AcDbCircle
10
45.335785177545574
20
29.648926972556573
30
0
40
1.4999999999999858
210
0
220
0
230
-1
0
CIRCLE
5
124
100
AcDbEntity
8
INTERIOR_PROFILES
100
AcDbCircle
10
55.23528011415722
20
19.749432035944913
30
0
40
11.000000000000014
210
0
220
0
230
-1
0
CIRCLE
5
125
100
AcDbEntity
8
INTERIOR_PROFILES
100
AcDbCircle
10
45.335785177545574
20
9.849937099333248
30
0
40
1.5000000000000213
210
0
220
0
230
-1
0
CIRCLE
5
126
100
AcDbEntity
8
INTERIOR_PROFILES
100
AcDbCircle
10
-64.76471988584278
20
5.7494320359448992
30
0
40
1.5000000000000036
210
0
220
0
230
-1
0
CIRCLE
5
127
100
AcDbEntity
8
INTERIOR_PROFILES
100
AcDbCircle
10
70.735280114157234
20
4.2494320359448956
30
0
40
1.4999999999999858
210
0
220
0
230
-1
0
CIRCLE
5
128
100
AcDbEntity
8
INTERIOR_PROFILES
100
AcDbCircle
10
70.735280114157234
20
35.24943203594492
30
0
40
1.5000000000000213
210
0
220
0
230
-1
0
CIRCLE
5
129
100
AcDbEntity
8
INTERIOR_PROFILES
100
AcDbCircle
10
65.134775050768866
20
29.648926972556573
30
0
40
1.4999999999999858
210
0
220
0
230
-1
0
CIRCLE
5
130
100
AcDbEntity
8
INTERIOR_PROFILES
100
AcDbCircle
10
-64.76471914078472
20
33.749431216381041
30
0
40
1.5000000000000036
210
0
220
0
230
-1
0
ENDSEC
0
SECTION
2
OBJECTS
0
DICTIONARY
5
C
100
AcDbDictionary
3
ACAD_GROUP
350
D
3
ACAD_MLINESTYLE
350
17
0
DICTIONARY
5
D
100
AcDbDictionary
0
DICTIONARY
5
1A
330
C
100
AcDbDictionary
0
DICTIONARY
5
17
100
AcDbDictionary
0
ENDSEC
0
EOF
