0
SECTION
2
HEADER
9
$INSUNITS
70
4
9
$ACADVER
1
AC1014
9
$HANDSEED
5
FFFF
0
ENDSEC
0
SECTION
2
TABLES
0
TABLE
2
VPORT
5
8
100
AcDbSymbolTable
0
ENDTAB
0
TABLE
2
LTYPE
5
5
100
AcDbSymbolTable
0
LTYPE
5
14
100
AcDbSymbolTableRecord
100
AcDbLinetypeTableRecord
2
BYBLOCK
70
0
0
LTYPE
5
15
100
AcDbSymbolTableRecord
100
AcDbLinetypeTableRecord
2
BYLAYER
70
0
0
ENDTAB
0
TABLE
2
LAYER
5
2
100
AcDbSymbolTable
70
2
0
LAYER
5
50
100
AcDbSymbolTableRecord
100
AcDbLayerTableRecord
2
0
70
0
6
CONTINUOUS
0
ENDTAB
0
TABLE
2
STYLE
5
3
100
AcDbSymbolTable
70
1
0
STYLE
5
11
100
AcDbSymbolTableRecord
100
AcDbTextStyleTableRecord
2
STANDARD
70
0
0
ENDTAB
0
TABLE
2
VIEW
5
6
100
AcDbSymbolTable
70
0
0
ENDTAB
0
TABLE
2
UCS
5
7
100
AcDbSymbolTable
70
0
0
ENDTAB
0
TABLE
2
APPID
5
9
100
AcDbSymbolTable
70
2
0
APPID
5
12
100
AcDbSymbolTableRecord
100
AcDbRegAppTableRecord
2
ACAD
70
0
0
ENDTAB
0
TABLE
2
DIMSTYLE
5
A
100
AcDbSymbolTable
70
1
0
ENDTAB
0
TABLE
2
BLOCK_RECORD
5
1
100
AcDbSymbolTable
70
1
0
BLOCK_RECORD
5
1F
100
AcDbSymbolTableRecord
100
AcDbBlockTableRecord
2
*MODEL_SPACE
0
BLOCK_RECORD
5
1B
100
AcDbSymbolTableRecord
100
AcDbBlockTableRecord
2
*PAPER_SPACE
0
ENDTAB
0
ENDSEC
0
SECTION
2
BLOCKS
0
BLOCK
5
20
100
AcDbEntity
100
AcDbBlockBegin
2
*MODEL_SPACE
0
ENDBLK
5
21
100
AcDbEntity
100
AcDbBlockEnd
0
BLOCK
5
1C
100
AcDbEntity
100
AcDbBlockBegin
2
*PAPER_SPACE
0
ENDBLK
5
1D
100
AcDbEntity
100
AcDbBlockEnd
0
ENDSEC
0
SECTION
2
ENTITIES
0
LWPOLYLINE
5
100
100
AcDbEntity
8
OUTER_PROFILES
100
AcDbPolyline
90
8
70
1
43
0.0
10
-7.9999999999999849
20
8.0000000000000071
10
-7.9999999999999849
20
157
42
-0.41421356237309476
10
1.4609174415243188e-14
20
165
10
149
20
164.99999999999997
42
-0.41421356237309509
10
157.00000000000003
20
157
10
157
20
8.0000000000000071
42
-0.41421356237309509
10
149
20
7.7715611723760958e-15
10
0
20
7.7715611723760958e-15
42
-0.4142135623730947
0
LWPOLYLINE
5
101
100
AcDbEntity
8
INTERIOR_PROFILES
100
AcDbPolyline
90
4
70
1
43
0.0
10
36.929753106812527
20
67.499999999999972
10
36.92975310681252
20
97.499999999999972
42
0.99999999999999989
10
32.729753106812524
20
97.499999999999972
10
32.729753106812524
20
67.499999999999972
42
0.99999999999999989
0
CIRCLE
5
102
100
AcDbEntity
8
INTERIOR_PROFILES
100
AcDbCircle
10
-24.500000000000011
20
52.749671381914361
30
0
40
2.6000000000000068
210
0
220
0
230
-1
0
CIRCLE
5
103
100
AcDbEntity
8
INTERIOR_PROFILES
100
AcDbCircle
10
-104.50000000000001
20
152.49999999999994
30
0
40
2.5999999999999979
210
0
220
0
230
-1
0
CIRCLE
5
104
100
AcDbEntity
8
INTERIOR_PROFILES
100
AcDbCircle
10
-144.5
20
92.499999999999929
30
0
40
2.5999999999999979
210
0
220
0
230
-1
0
CIRCLE
5
105
100
AcDbEntity
8
INTERIOR_PROFILES
100
AcDbCircle
10
-64.500000000000014
20
152.49999999999994
30
0
40
2.6000000000000068
210
0
220
0
230
-1
0
CIRCLE
5
106
100
AcDbEntity
8
INTERIOR_PROFILES
100
AcDbCircle
10
124.50000000000001
20
12.499999999999938
30
0
40
2.5999999999999979
210
-0
220
0
230
1
0
CIRCLE
5
107
100
AcDbEntity
8
INTERIOR_PROFILES
100
AcDbCircle
10
114.50000000000001
20
122.49999999999997
30
0
40
2.1000000000000085
210
-0
220
0
230
1
0
CIRCLE
5
108
100
AcDbEntity
8
INTERIOR_PROFILES
100
AcDbCircle
10
4.5000000000000107
20
112.49999999999997
30
0
40
2.5999999999999979
210
0
220
-0
230
1
0
CIRCLE
5
109
100
AcDbEntity
8
INTERIOR_PROFILES
100
AcDbCircle
10
4.5000000000000062
20
92.499999999999972
30
0
40
2.5999999999999979
210
0
220
-0
230
1
0
LWPOLYLINE
5
110
100
AcDbEntity
8
INTERIOR_PROFILES
100
AcDbPolyline
90
4
70
1
43
0.0
10
17.363414643256235
20
97.499999999999972
42
-0.99999999999999989
10
21.563414643256245
20
97.499999999999972
10
21.563414643256245
20
67.499999999999972
42
-0.99999999999999989
10
17.363414643256249
20
67.499999999999972
0
CIRCLE
5
111
100
AcDbEntity
8
INTERIOR_PROFILES
100
AcDbCircle
10
-144.5
20
52.499999999999929
30
0
40
2.5999999999999979
210
0
220
0
230
-1
0
CIRCLE
5
112
100
AcDbEntity
8
INTERIOR_PROFILES
100
AcDbCircle
10
4.5000000000000018
20
12.499999999999964
30
0
40
4.1000000000000014
210
0
220
0
230
1
0
CIRCLE
5
113
100
AcDbEntity
8
INTERIOR_PROFILES
100
AcDbCircle
10
36.394881553915482
20
104.50000013425378
30
0
40
1.6000000000000014
210
0
220
0
230
1
0
CIRCLE
5
114
100
AcDbEntity
8
INTERIOR_PROFILES
100
AcDbCircle
10
104.50000000000001
20
132.49999999999997
30
0
40
2.5999999999999979
210
0
220
-0
230
1
0
CIRCLE
5
115
100
AcDbEntity
8
INTERIOR_PROFILES
100
AcDbCircle
10
84.500000000000014
20
12.499999999999938
30
0
40
2.5999999999999979
210
-0
220
0
230
1
0
CIRCLE
5
116
100
AcDbEntity
8
INTERIOR_PROFILES
100
AcDbCircle
10
34.499999999999993
20
122.49999999999999
30
0
40
2.1000000000000085
210
-0
220
0
230
1
0
CIRCLE
5
117
100
AcDbEntity
8
INTERIOR_PROFILES
100
AcDbCircle
10
-124.50000000000001
20
72.429011884623932
30
0
40
2.5999999999999979
210
0
220
0
230
-1
0
CIRCLE
5
118
100
AcDbEntity
8
INTERIOR_PROFILES
100
AcDbCircle
10
64.5
20
32.49999999999995
30
0
40
2.5999999999999979
210
-0
220
0
230
1
0
CIRCLE
5
119
100
AcDbEntity
8
INTERIOR_PROFILES
100
AcDbCircle
10
4.5000000000000151
20
152.49999999999997
30
0
40
4.1000000000000014
210
0
220
-0
230
1
0
CIRCLE
5
120
100
AcDbEntity
8
INTERIOR_PROFILES
100
AcDbCircle
10
4.4999999999999973
20
52.499999999999964
30
0
40
2.5999999999999979
210
0
220
-0
230
1
0
CIRCLE
5
121
100
AcDbEntity
8
INTERIOR_PROFILES
100
AcDbCircle
10
74.500000223517418
20
126.50000065565106
30
0
40
1.6000000000000014
210
-0
220
0
230
1
0
CIRCLE
5
122
100
AcDbEntity
8
INTERIOR_PROFILES
100
AcDbCircle
10
-144.50000000000003
20
152.49999999999994
30
0
40
4.1000000000000014
210
0
220
0
230
-1
0
CIRCLE
5
123
100
AcDbEntity
8
INTERIOR_PROFILES
100
AcDbCircle
10
124.50000000000001
20
32.499999999999936
30
0
40
2.5999999999999979
210
-0
220
0
230
1
0
CIRCLE
5
124
100
AcDbEntity
8
INTERIOR_PROFILES
100
AcDbCircle
10
84.500000000000014
20
32.499999999999943
30
0
40
2.5999999999999979
210
-0
220
0
230
1
0
CIRCLE
5
125
100
AcDbEntity
8
INTERIOR_PROFILES
100
AcDbCircle
10
-144.50000000000003
20
112.49999999999993
30
0
40
2.5999999999999979
210
0
220
0
230
-1
0
CIRCLE
5
126
100
AcDbEntity
8
INTERIOR_PROFILES
100
AcDbCircle
10
114.5
20
42.499999999999943
30
0
40
2.0999999999999996
210
-0
220
0
230
1
0
CIRCLE
5
127
100
AcDbEntity
8
INTERIOR_PROFILES
100
AcDbCircle
10
-124.50000000000001
20
92.499999999999929
30
0
40
2.5999999999999979
210
0
220
0
230
-1
0
CIRCLE
5
128
100
AcDbEntity
8
INTERIOR_PROFILES
100
AcDbCircle
10
112.6561665823734
20
60.588657007427109
30
0
40
1.6000000000000014
210
-0
220
0
230
1
0
CIRCLE
5
129
100
AcDbEntity
8
INTERIOR_PROFILES
100
AcDbCircle
10
34.499999999999972
20
42.499999999999964
30
0
40
2.0999999999999996
210
-0
220
0
230
1
0
CIRCLE
5
130
100
AcDbEntity
8
INTERIOR_PROFILES
100
AcDbCircle
10
-144.5
20
72.499999999999929
30
0
40
2.6000000000000068
210
0
220
0
230
-1
0
CIRCLE
5
131
100
AcDbEntity
8
INTERIOR_PROFILES
100
AcDbCircle
10
124.50000000000001
20
112.49999999999993
30
0
40
2.5999999999999979
210
-0
220
0
230
1
0
CIRCLE
5
132
100
AcDbEntity
8
INTERIOR_PROFILES
100
AcDbCircle
10
44.500000000000014
20
132.49999999999994
30
0
40
2.5999999999999979
210
0
220
-0
230
1
0
CIRCLE
5
133
100
AcDbEntity
8
INTERIOR_PROFILES
100
AcDbCircle
10
104.50000000000001
20
12.499999999999938
30
0
40
2.6000000000000068
210
-0
220
0
230
1
0
CIRCLE
5
134
100
AcDbEntity
8
INTERIOR_PROFILES
100
AcDbCircle
10
24.5
20
12.499999999999956
30
0
40
2.5999999999999979
210
-0
220
0
230
1
0
CIRCLE
5
135
100
AcDbEntity
8
INTERIOR_PROFILES
100
AcDbCircle
10
74.500000223517389
20
38.499999344348858
30
0
40
1.6000000000000014
210
-0
220
0
230
1
0
CIRCLE
5
136
100
AcDbEntity
8
INTERIOR_PROFILES
100
AcDbCircle
10
24.500000000000021
20
152.49999999999997
30
0
40
2.5999999999999979
210
0
220
-0
230
1
0
CIRCLE
5
137
100
AcDbEntity
8
INTERIOR_PROFILES
100
AcDbCircle
10
64.44171486454492
20
132.49999999999997
30
0
40
2.5999999999999979
210
0
220
-0
230
1
0
CIRCLE
5
138
100
AcDbEntity
8
INTERIOR_PROFILES
100
AcDbCircle
10
64.500000000000014
20
12.499999999999947
30
0
40
2.5999999999999979
210
-0
220
0
230
1
0
CIRCLE
5
139
100
AcDbEntity
8
INTERIOR_PROFILES
100
AcDbCircle
10
48.08764728167862
20
38.642639365033688
30
0
40
2.0000000000000018
210
-0
220
0
230
1
0
CIRCLE
5
140
100
AcDbEntity
8
INTERIOR_PROFILES
100
AcDbCircle
10
-144.50000000000003
20
132.49999999999994
30
0
40
2.5999999999999979
210
0
220
0
230
-1
0
CIRCLE
5
141
100
AcDbEntity
8
INTERIOR_PROFILES
100
AcDbCircle
10
4.5000000000000062
20
72.499999999999972
30
0
40
2.5999999999999979
210
0
220
-0
230
1
0
CIRCLE
5
142
100
AcDbEntity
8
INTERIOR_PROFILES
100
AcDbCircle
10
112.64181410312918
20
104.43631730538046
30
0
40
1.6000000000000014
210
-0
220
0
230
1
0
CIRCLE
5
143
100
AcDbEntity
8
INTERIOR_PROFILES
100
AcDbCircle
10
-44.500000000000014
20
152.49999999999994
30
0
40
2.5999999999999979
210
0
220
0
230
-1
0
CIRCLE
5
144
100
AcDbEntity
8
INTERIOR_PROFILES
100
AcDbCircle
10
44.500000000000014
20
32.499999999999943
30
0
40
2.5999999999999979
210
-0
220
0
230
1
0
CIRCLE
5
145
100
AcDbEntity
8
INTERIOR_PROFILES
100
AcDbCircle
10
44.5
20
12.499999999999947
30
0
40
2.5999999999999979
210
-0
220
0
230
1
0
CIRCLE
5
146
100
AcDbEntity
8
INTERIOR_PROFILES
100
AcDbCircle
10
100.86444660731331
20
126.35509335504274
30
0
40
1.9999999999999929
210
-0
220
0
230
1
0
CIRCLE
5
147
100
AcDbEntity
8
INTERIOR_PROFILES
100
AcDbCircle
10
24.500000000000011
20
32.499999999999957
30
0
40
2.5999999999999979
210
-0
220
0
230
1
0
CIRCLE
5
148
100
AcDbEntity
8
INTERIOR_PROFILES
100
AcDbCircle
10
104.50000000000001
20
32.499999999999936
30
0
40
2.5999999999999979
210
-0
220
0
230
1
0
CIRCLE
5
149
100
AcDbEntity
8
INTERIOR_PROFILES
100
AcDbCircle
10
100.76812252302466
20
38.597715730531007
30
0
40
1.9999999999999929
210
-0
220
0
230
1
0
CIRCLE
5
150
100
AcDbEntity
8
INTERIOR_PROFILES
100
AcDbCircle
10
-124.50000000000001
20
52.499999999999936
30
0
40
2.5999999999999979
210
0
220
0
230
-1
0
CIRCLE
5
151
100
AcDbEntity
8
INTERIOR_PROFILES
100
AcDbCircle
10
84.500000000000028
20
132.49999999999994
30
0
40
2.5999999999999979
210
0
220
-0
230
1
0
CIRCLE
5
152
100
AcDbEntity
8
INTERIOR_PROFILES
100
AcDbCircle
10
24.500000000000011
20
132.49999999999997
30
0
40
2.5999999999999979
210
-0
220
0
230
1
0
CIRCLE
5
153
100
AcDbEntity
8
INTERIOR_PROFILES
100
AcDbCircle
10
-144.5
20
32.499999999999929
30
0
40
2.6000000000000068
210
0
220
0
230
-1
0
CIRCLE
5
154
100
AcDbEntity
8
INTERIOR_PROFILES
100
AcDbCircle
10
-84.500000000000014
20
152.49999999999994
30
0
40
2.5999999999999979
210
0
220
0
230
-1
0
CIRCLE
5
155
100
AcDbEntity
8
INTERIOR_PROFILES
100
AcDbCircle
10
4.5000000000000018
20
32.499999999999957
30
0
40
2.5999999999999979
210
0
220
-0
230
1
0
CIRCLE
5
156
100
AcDbEntity
8
INTERIOR_PROFILES
100
AcDbCircle
10
36.394881777432872
20
60.499999478602682
30
0
40
1.6000000000000014
210
-0
220
0
230
1
0
CIRCLE
5
157
100
AcDbEntity
8
INTERIOR_PROFILES
100
AcDbCircle
10
124.50000000000004
20
132.49999999999994
30
0
40
2.5999999999999979
210
-0
220
0
230
1
0
CIRCLE
5
158
100
AcDbEntity
8
INTERIOR_PROFILES
100
AcDbCircle
10
144.5
20
12.499999999999929
30
0
40
4.1000000000000014
210
-0
220
0
230
1
0
CIRCLE
5
159
100
AcDbEntity
8
INTERIOR_PROFILES
100
AcDbCircle
10
4.5000000000000195
20
132.49999999999997
30
0
40
2.5999999999999979
210
0
220
-0
230
1
0
CIRCLE
5
160
100
AcDbEntity
8
INTERIOR_PROFILES
100
AcDbCircle
10
24.500000000000007
20
112.49999999999997
30
0
40
2.5999999999999979
210
0
220
-0
230
1
0
CIRCLE
5
161
100
AcDbEntity
8
INTERIOR_PROFILES
100
AcDbCircle
10
-124.50000000000003
20
152.49999999999994
30
0
40
2.5999999999999979
210
0
220
0
230
-1
0
CIRCLE
5
162
100
AcDbEntity
8
INTERIOR_PROFILES
100
AcDbCircle
10
48.135553392686759
20
126.35509335504274
30
0
40
2.1000000000000085
210
-0
220
0
230
1
0
CIRCLE
5
163
100
AcDbEntity
8
INTERIOR_PROFILES
100
AcDbCircle
10
74.499999999999972
20
82.499999999999972
30
0
40
11.050000000000004
210
-0
220
0
230
1
0
ENDSEC
0
SECTION
2
OBJECTS
0
DICTIONARY
5
C
100
AcDbDictionary
3
ACAD_GROUP
350
D
3
ACAD_MLINESTYLE
350
17
0
DICTIONARY
5
D
100
AcDbDictionary
0
DICTIONARY
5
1A
330
C
100
AcDbDictionary
0
DICTIONARY
5
17
100
AcDbDictionary
0
ENDSEC
0
EOF
